<?xml version="1.0" encoding="UTF-8"?>
<svg id="Camada_2" data-name="Camada 2" xmlns="http://www.w3.org/2000/svg" xmlns:xlink="http://www.w3.org/1999/xlink" viewBox="0 0 1139.11 185">
  <defs>
    <style>
      .cls-1 {
        fill: url(#Gradiente_sem_nome_2);
      }

      .cls-1, .cls-2, .cls-3, .cls-4 {
        stroke-width: 0px;
      }

      .cls-2 {
        fill: url(#Gradiente_sem_nome_2-2);
      }

      .cls-3 {
        fill: #f9f9ec;
      }

      .cls-4 {
        fill: #b0ff8c;
      }
    </style>
    <linearGradient id="Gradiente_sem_nome_2" data-name="Gradiente sem nome 2" x1="56.18" y1="-945.11" x2="84.16" y2="-1108.35" gradientTransform="translate(0 -942.29) scale(1 -1)" gradientUnits="userSpaceOnUse">
      <stop offset="0" stop-color="#36ffc0"/>
      <stop offset="1" stop-color="#b0ff8c"/>
    </linearGradient>
    <linearGradient id="Gradiente_sem_nome_2-2" data-name="Gradiente sem nome 2" x1="27.64" y1="-1030.71" x2="41.93" y2="-1129.12" xlink:href="#Gradiente_sem_nome_2"/>
  </defs>
  <g id="Logo_horizontal_branco" data-name="Logo horizontal branco">
    <g id="Logo_horzontal_Branco" data-name="Logo horzontal | Branco">
      <path class="cls-1" d="M82.49,163.57c9.69-9.52,20.38-18.21,28.8-28.75,11.05-13.79,10.33-32.92-1.44-48.02-8.93-11.47-19.57-21.64-29.67-32.18-14.51-15.13-27.1-30.95-21.48-54.62C16.28,22.19,8.41,71.12,43.34,100.66c7.91,6.71,18.36,13.29,26.36,20.73,26.55,24.69,11.98,41.72,12.81,42.18h-.02Z"/>
      <path class="cls-2" d="M11.96,87.18c4.69,11.68,12.07,19.61,19.11,26.02,0,0,.02,0,.04.02.49.44.95.89,1.44,1.31,1.17,1.04,2.4,1.99,3.69,2.92,5.53,4,12.24,8.72,16.2,11.49,3.31,2.31,6.4,4.93,9.08,7.93,13.34,14.98,8.5,32.79-11.56,48.13-1.7-18.13-9.84-24.54-22.35-30.63C-1.89,139.94-8.78,109.94,11.96,87.18Z"/>
      <path class="cls-4" d="M717.6,41.42h11.21v32.84c0,3.88-.27,12.35-.27,14.91h.14c3.79-12.35,13.46-20.38,30-20.38,18.22,0,29.02,10.76,29.02,27.69v44.33h-11.21v-41.89c0-12.05-6.72-19.8-21.58-19.8-15.83,0-26.07,10.34-26.07,28.25v33.42h-11.21V41.42h-.02Z"/>
      <path class="cls-4" d="M872.07,107.69h-54.24c.7,15.07,9.68,24.53,23.27,24.53,11.64,0,19.62-6.02,20.61-15.35h10.37c-.7,15.35-12.9,25.11-31.12,25.11-20.89,0-34.35-14.06-34.35-36.01s13.31-37.16,34.06-37.16,31.39,12.48,31.39,33.56v5.31ZM861.69,98.5c0-12.48-7.58-19.94-20.75-19.94-12.33,0-20.61,7.32-22.71,20.8h43.46v-.86Z"/>
      <path class="cls-4" d="M888.89,120.45c0-10.04,6.88-18.65,25.37-18.65h28.17v-5.17c0-12.19-7.01-18.07-21.18-18.07-12.76,0-19.76,4.87-19.76,14.49,0,.44,0,1.43.14,2.58h-10.37c-.14-1.01-.27-3.02-.27-4.3,0-14.06,11.77-22.52,30.56-22.52,20.32,0,32.09,10.34,32.09,28.83v43.18h-11.21c.14-3.3.43-9.9.56-16.78h-.14c-2.39,10.9-11.07,17.93-28.31,17.93-15.7,0-25.65-8.17-25.65-21.51v-.02ZM942.43,111.13v-1.01h-27.2c-11.35,0-15.84,3.44-15.84,10.34s6.45,11.77,17.39,11.77c15.7,0,25.65-8.17,25.65-21.09Z"/>
      <path class="cls-4" d="M976.08,41.42h11.21v99.41h-11.21V41.42Z"/>
      <path class="cls-4" d="M1013.92,114.86v-34.85h-11.5v-10.04h9.25c2.24,0,3.09-1.15,3.36-4.87l.57-11.19h9.54v16.06h25.1v10.04h-25.1v34.14c0,10.76,3.36,17.22,13.73,17.22,4.76,0,9.25-.86,10.8-1.43v9.76c-2.1.86-6.18,1.73-11.77,1.73-16.82,0-23.97-10.9-23.97-26.54v-.02Z"/>
      <path class="cls-4" d="M1069.01,41.42h11.21v32.84c0,3.88-.27,12.35-.27,14.91h.14c3.79-12.35,13.46-20.38,30-20.38,18.22,0,29.02,10.76,29.02,27.69v44.33h-11.21v-41.89c0-12.05-6.72-19.8-21.58-19.8-15.83,0-26.07,10.34-26.07,28.25v33.42h-11.21V41.42h-.02Z"/>
      <path class="cls-3" d="M251.87,127.05v5.66c0,4.8-3.8,8.68-8.48,8.68h-54.04V47.01h8.34c4.69,0,8.48,3.89,8.48,8.68v56.64c0,3-1.31,7.49-3.48,9.53-2.17,2.04-4.79,4.59-4.79,8,0,0,1.47-2.79,8.28-2.85,3.58-.03,45.69.03,45.69.03Z"/>
      <path class="cls-3" d="M346.16,69.38c-13.73,0-23.27,6.6-26.21,16.92h-.14c.14-3.44.27-9.18.27-12.19v-24.67c0-4.12-3.26-7.46-7.29-7.46h-8.41v99.41h6.76c4.81,0,8.63-4.09,8.48-8.99-.07-2.08-.1-4.17-.1-6.06h.14c2.8,9.9,12.33,16.2,26.63,16.2,19.48,0,31.68-14.49,31.68-37.87,0-21.81-11.91-35.29-31.82-35.29ZM342.23,129.34c-13.6,0-22.15-7.6-22.15-19.94v-3.58c0-14.35,8.68-23.24,22.42-23.24,12.34,0,19.76,8.61,19.76,22.52,0,15.07-7.71,24.24-20.05,24.24h.02Z"/>
      <path class="cls-3" d="M457.08,109.12v-5.74c0-22.09-12.47-34-32.09-34-21.87,0-35.61,14.2-35.61,37.16s13.73,36.01,35.61,36.01c12.47,0,22.21-4.17,27.55-11.54,4.15-5.73.12-13.85-6.84-13.85h-2.77c-.7,8.31-7.57,12.9-17.66,12.9-9.1,0-15.99-4.19-18.44-12.55-2.27-8.1-9.21-9.31-9.21-9.31,0,0,6.67.93,8.02.93h51.44ZM425.12,81.86c11.36,0,17.81,5.88,17.81,16.5v1h-37.3c1.83-11.77,8.7-17.5,19.49-17.5Z"/>
      <path class="cls-3" d="M513.43,69.38c-14.3,0-21.44,8.75-24.67,21.51h-.14l.56-20.38h-15.7v70.86h7.22c4.69,0,8.48-3.89,8.48-8.68v-22.3c0-16.92,7.42-27.26,19.35-27.26,9.25,0,13.74,5.59,13.74,17.5,0,3.3-.29,6.88-.57,9.6h14.3c.27-3.02.7-8.75.7-13.2,0-17.64-8.28-27.69-23.27-27.69v.03Z"/>
      <path class="cls-3" d="M567.01,82.2s6.12,1.61,6.12,10.39v22.7c0,9.18,3.36,13.78,12.9,13.78,3.92,0,8.41-.72,10.37-1.29v5.6c0,4.44-3.24,8.19-7.56,8.64-1.55.16-3.28.26-5.07.26-18.92,0-26.34-10.48-26.34-26.12v-32.57h-10.94v-13.04h8.84c2.66,0,3.63-1.43,4.06-5.45l.7-10.62h13.03v16.06h23.82v6.58c0,5.08-4.61,8.85-9.45,7.74l-20.49-2.67Z"/>
      <path class="cls-3" d="M670.39,70.53c5.92,0,10.02,6.04,7.95,11.72l-22.08,60.57c-7.71,21.23-14.45,28.55-28.19,28.55-1.36,0-2.65-.07-3.84-.19-4.33-.45-7.65-4.19-7.65-8.64v-5.64c1.96.58,5.19,1.45,8.68,1.45,6.21,0,7.18-3.34,9.64-6.81,4.15-5.87,15-9.57,15-9.57l-8,.73c-2.18.4-4.37-.79-5.24-2.86l-29.33-69.29h12.4c3.45,0,6.54,2.13,7.85,5.38l19.84,49.28h.28l19.48-54.65h3.21v-.02Z"/>
      <path class="cls-3" d="M283.68,75.32v57.53c0,4.8-3.8,8.68-8.48,8.68h-7.25v-49.26c0-11.66,8.46-13.11,8.5-13.1-4.9,1-4.66,1.15-8.27,1.43-4.33.73-8.28-2.67-8.28-7.16v-6.81h15.29c4.69,0,8.48,3.89,8.48,8.68h.02Z"/>
      <path class="cls-3" d="M275.76,59.65c4.77,0,8.63-3.96,8.63-8.84s-3.87-8.84-8.63-8.84-8.63,3.96-8.63,8.84,3.87,8.84,8.63,8.84Z"/>
    </g>
  </g>
</svg>